<svg xmlns="http://www.w3.org/2000/svg" viewBox="0 0 470 365" width="470" height="365" shape-rendering="geometricPrecision">
  <path fill="#111111" d="M 113.00,127.00 L 113.00,128.00 L 107.00,136.00 L 101.00,148.00 L 101.00,150.00 L 99.00,153.00 L 99.00,155.00 L 98.00,156.00 L 98.00,158.00 L 96.00,162.00 L 96.00,165.00 L 95.00,166.00 L 95.00,169.00 L 94.00,170.00 L 94.00,175.00 L 93.00,176.00 L 93.00,186.00 L 92.00,187.00 L 92.00,194.00 L 93.00,195.00 L 93.00,206.00 L 94.00,207.00 L 94.00,212.00 L 95.00,213.00 L 95.00,216.00 L 96.00,217.00 L 98.00,225.00 L 100.00,228.00 L 100.00,230.00 L 102.00,232.00 L 104.00,237.00 L 106.00,239.00 L 108.00,243.00 L 121.00,256.00 L 122.00,256.00 L 127.00,260.00 L 133.00,263.00 L 135.00,263.00 L 138.00,265.00 L 141.00,265.00 L 142.00,266.00 L 145.00,266.00 L 146.00,265.00 L 146.00,263.00 L 143.00,259.00 L 137.00,247.00 L 137.00,245.00 L 135.00,241.00 L 135.00,238.00 L 134.00,237.00 L 134.00,233.00 L 133.00,232.00 L 133.00,224.00 L 132.00,223.00 L 132.00,214.00 L 133.00,213.00 L 133.00,206.00 L 134.00,205.00 L 134.00,201.00 L 136.00,197.00 L 137.00,191.00 L 140.00,186.00 L 140.00,184.00 L 142.00,180.00 L 144.00,178.00 L 145.00,175.00 L 147.00,173.00 L 149.00,169.00 L 165.00,153.00 L 166.00,153.00 L 174.00,147.00 L 182.00,143.00 L 184.00,143.00 L 187.00,141.00 L 189.00,141.00 L 193.00,139.00 L 196.00,139.00 L 197.00,138.00 L 203.00,138.00 L 204.00,137.00 L 224.00,137.00 L 225.00,138.00 L 229.00,138.00 L 230.00,139.00 L 233.00,139.00 L 234.00,140.00 L 237.00,140.00 L 240.00,142.00 L 242.00,142.00 L 256.00,149.00 L 259.00,152.00 L 260.00,152.00 L 263.00,155.00 L 264.00,155.00 L 276.00,167.00 L 276.00,168.00 L 282.00,175.00 L 283.00,178.00 L 285.00,180.00 L 288.00,186.00 L 288.00,188.00 L 290.00,191.00 L 290.00,193.00 L 292.00,197.00 L 292.00,200.00 L 293.00,201.00 L 293.00,206.00 L 294.00,207.00 L 294.00,215.00 L 295.00,216.00 L 295.00,220.00 L 294.00,221.00 L 294.00,231.00 L 293.00,232.00 L 292.00,240.00 L 291.00,241.00 L 290.00,246.00 L 288.00,249.00 L 288.00,251.00 L 286.00,255.00 L 280.00,263.00 L 280.00,266.00 L 284.00,266.00 L 285.00,265.00 L 290.00,264.00 L 300.00,259.00 L 303.00,256.00 L 304.00,256.00 L 307.00,253.00 L 308.00,253.00 L 313.00,248.00 L 313.00,247.00 L 320.00,239.00 L 321.00,236.00 L 323.00,234.00 L 326.00,228.00 L 326.00,226.00 L 328.00,223.00 L 329.00,217.00 L 331.00,213.00 L 332.00,203.00 L 333.00,202.00 L 333.00,180.00 L 332.00,179.00 L 332.00,172.00 L 331.00,171.00 L 331.00,168.00 L 330.00,167.00 L 329.00,160.00 L 328.00,159.00 L 327.00,154.00 L 324.00,149.00 L 324.00,147.00 L 319.00,137.00 L 317.00,135.00 L 316.00,132.00 L 314.00,130.00 L 312.00,126.00 L 308.00,122.00 L 308.00,121.00 L 293.00,106.00 L 292.00,106.00 L 289.00,103.00 L 288.00,103.00 L 285.00,100.00 L 284.00,100.00 L 279.00,96.00 L 274.00,94.00 L 272.00,92.00 L 266.00,89.00 L 264.00,89.00 L 259.00,86.00 L 257.00,86.00 L 256.00,85.00 L 254.00,85.00 L 253.00,84.00 L 251.00,84.00 L 250.00,83.00 L 248.00,83.00 L 244.00,81.00 L 241.00,81.00 L 240.00,80.00 L 235.00,80.00 L 234.00,79.00 L 228.00,79.00 L 227.00,78.00 L 199.00,78.00 L 198.00,79.00 L 186.00,80.00 L 185.00,81.00 L 182.00,81.00 L 178.00,83.00 L 175.00,83.00 L 169.00,86.00 L 167.00,86.00 L 164.00,88.00 L 162.00,88.00 L 150.00,94.00 L 148.00,96.00 L 145.00,97.00 L 135.00,105.00 L 134.00,105.00 L 126.00,113.00 L 125.00,113.00 L 125.00,114.00 Z"/><path fill="#111111" d="M 357.00,276.00 L 355.00,274.00 L 355.00,273.00 L 346.00,264.00 L 345.00,264.00 L 343.00,262.00 L 332.00,257.00 L 327.00,257.00 L 327.00,258.00 L 318.00,267.00 L 317.00,267.00 L 314.00,270.00 L 308.00,273.00 L 306.00,275.00 L 302.00,276.00 L 297.00,279.00 L 295.00,279.00 L 291.00,281.00 L 288.00,281.00 L 287.00,282.00 L 283.00,282.00 L 282.00,283.00 L 276.00,283.00 L 275.00,284.00 L 273.00,283.00 L 265.00,290.00 L 264.00,290.00 L 261.00,293.00 L 255.00,296.00 L 253.00,298.00 L 249.00,300.00 L 247.00,300.00 L 244.00,302.00 L 239.00,303.00 L 238.00,304.00 L 244.00,311.00 L 247.00,317.00 L 248.00,322.00 L 249.00,323.00 L 249.00,334.00 L 248.00,335.00 L 248.00,338.00 L 245.00,344.00 L 239.00,350.00 L 253.00,351.00 L 254.00,352.00 L 258.00,352.00 L 259.00,353.00 L 263.00,353.00 L 264.00,354.00 L 268.00,354.00 L 269.00,355.00 L 273.00,355.00 L 274.00,356.00 L 279.00,356.00 L 280.00,357.00 L 285.00,357.00 L 286.00,358.00 L 294.00,358.00 L 295.00,359.00 L 313.00,359.00 L 314.00,358.00 L 319.00,358.00 L 320.00,357.00 L 324.00,357.00 L 325.00,356.00 L 330.00,355.00 L 340.00,350.00 L 342.00,348.00 L 343.00,348.00 L 354.00,337.00 L 361.00,324.00 L 361.00,322.00 L 363.00,318.00 L 363.00,315.00 L 364.00,314.00 L 364.00,294.00 L 363.00,293.00 L 363.00,290.00 L 362.00,289.00 L 361.00,284.00 Z"/><path fill="#111111" d="M 69.00,275.00 L 64.00,285.00 L 63.00,291.00 L 62.00,292.00 L 62.00,297.00 L 61.00,298.00 L 61.00,309.00 L 62.00,310.00 L 62.00,316.00 L 63.00,317.00 L 63.00,320.00 L 64.00,321.00 L 65.00,326.00 L 68.00,332.00 L 72.00,337.00 L 72.00,338.00 L 81.00,347.00 L 82.00,347.00 L 87.00,351.00 L 93.00,354.00 L 98.00,355.00 L 99.00,356.00 L 102.00,356.00 L 103.00,357.00 L 108.00,357.00 L 109.00,358.00 L 132.00,358.00 L 133.00,357.00 L 139.00,357.00 L 140.00,356.00 L 146.00,356.00 L 147.00,355.00 L 158.00,354.00 L 159.00,353.00 L 162.00,353.00 L 163.00,352.00 L 168.00,352.00 L 169.00,351.00 L 175.00,351.00 L 176.00,350.00 L 184.00,350.00 L 180.00,345.00 L 177.00,339.00 L 177.00,336.00 L 176.00,335.00 L 176.00,322.00 L 177.00,321.00 L 177.00,318.00 L 180.00,312.00 L 187.00,304.00 L 187.00,303.00 L 184.00,303.00 L 181.00,301.00 L 179.00,301.00 L 171.00,297.00 L 169.00,295.00 L 166.00,294.00 L 159.00,288.00 L 158.00,288.00 L 153.00,283.00 L 144.00,283.00 L 143.00,282.00 L 135.00,281.00 L 134.00,280.00 L 126.00,278.00 L 116.00,273.00 L 110.00,268.00 L 109.00,268.00 L 99.00,258.00 L 99.00,257.00 L 94.00,257.00 L 93.00,258.00 L 91.00,258.00 L 90.00,259.00 L 88.00,259.00 L 84.00,261.00 L 82.00,263.00 L 78.00,265.00 Z"/><path fill="#111111" d="M 183.00,31.00 L 180.00,37.00 L 180.00,39.00 L 179.00,40.00 L 179.00,44.00 L 178.00,45.00 L 178.00,57.00 L 179.00,58.00 L 179.00,61.00 L 180.00,62.00 L 180.00,64.00 L 182.00,68.00 L 186.00,67.00 L 189.00,65.00 L 194.00,64.00 L 195.00,63.00 L 203.00,62.00 L 204.00,61.00 L 222.00,61.00 L 223.00,62.00 L 228.00,62.00 L 229.00,63.00 L 232.00,63.00 L 233.00,64.00 L 238.00,65.00 L 243.00,68.00 L 245.00,68.00 L 246.00,64.00 L 248.00,61.00 L 248.00,57.00 L 249.00,56.00 L 249.00,45.00 L 248.00,44.00 L 248.00,41.00 L 247.00,40.00 L 247.00,38.00 L 246.00,37.00 L 245.00,33.00 L 240.00,27.00 L 240.00,26.00 L 233.00,20.00 L 225.00,16.00 L 222.00,16.00 L 221.00,15.00 L 216.00,15.00 L 215.00,14.00 L 205.00,15.00 L 204.00,16.00 L 199.00,17.00 L 192.00,21.00 L 185.00,28.00 L 185.00,29.00 Z"/><path fill="#111111" d="M 207.00,309.00 L 204.00,311.00 L 200.00,312.00 L 192.00,321.00 L 192.00,323.00 L 190.00,326.00 L 190.00,331.00 L 189.00,332.00 L 190.00,334.00 L 190.00,341.00 L 191.00,342.00 L 191.00,344.00 L 193.00,348.00 L 197.00,353.00 L 198.00,353.00 L 203.00,357.00 L 214.00,359.00 L 215.00,358.00 L 219.00,358.00 L 220.00,357.00 L 222.00,357.00 L 226.00,354.00 L 227.00,354.00 L 230.00,351.00 L 235.00,341.00 L 236.00,332.00 L 235.00,331.00 L 235.00,326.00 L 234.00,325.00 L 233.00,321.00 L 226.00,313.00 L 225.00,313.00 L 223.00,311.00 L 221.00,311.00 L 217.00,309.00 Z"/><path fill="#F58220" d="M 199.00,172.00 L 198.00,173.00 L 197.00,173.00 L 194.00,177.00 L 194.00,179.00 L 193.00,180.00 L 193.00,185.00 L 192.00,186.00 L 187.00,187.00 L 186.00,188.00 L 181.00,190.00 L 175.00,195.00 L 174.00,195.00 L 166.00,203.00 L 166.00,204.00 L 156.00,215.00 L 156.00,216.00 L 150.00,223.00 L 150.00,224.00 L 148.00,226.00 L 148.00,227.00 L 145.00,231.00 L 145.00,232.00 L 146.00,233.00 L 146.00,237.00 L 147.00,238.00 L 147.00,241.00 L 148.00,242.00 L 149.00,247.00 L 150.00,248.00 L 150.00,249.00 L 152.00,252.00 L 152.00,254.00 L 155.00,258.00 L 156.00,261.00 L 158.00,263.00 L 158.00,264.00 L 165.00,271.00 L 165.00,272.00 L 166.00,272.00 L 167.00,273.00 L 167.00,274.00 L 168.00,274.00 L 172.00,278.00 L 173.00,278.00 L 178.00,282.00 L 179.00,282.00 L 188.00,287.00 L 190.00,287.00 L 191.00,288.00 L 193.00,288.00 L 194.00,289.00 L 196.00,289.00 L 197.00,290.00 L 201.00,290.00 L 202.00,291.00 L 223.00,291.00 L 224.00,290.00 L 226.00,290.00 L 226.00,289.00 L 225.00,288.00 L 225.00,285.00 L 224.00,284.00 L 223.00,279.00 L 220.00,274.00 L 220.00,272.00 L 218.00,270.00 L 218.00,269.00 L 216.00,266.00 L 216.00,264.00 L 217.00,263.00 L 217.00,262.00 L 218.00,261.00 L 218.00,260.00 L 219.00,259.00 L 219.00,258.00 L 220.00,257.00 L 223.00,250.00 L 225.00,248.00 L 229.00,248.00 L 230.00,247.00 L 232.00,247.00 L 233.00,246.00 L 238.00,245.00 L 241.00,243.00 L 247.00,243.00 L 248.00,242.00 L 257.00,242.00 L 260.00,239.00 L 260.00,238.00 L 261.00,237.00 L 261.00,234.00 L 265.00,230.00 L 265.00,227.00 L 266.00,226.00 L 266.00,222.00 L 267.00,221.00 L 267.00,219.00 L 266.00,219.00 L 264.00,217.00 L 261.00,216.00 L 259.00,214.00 L 252.00,211.00 L 250.00,209.00 L 247.00,208.00 L 246.00,207.00 L 246.00,205.00 L 245.00,204.00 L 245.00,201.00 L 244.00,200.00 L 243.00,197.00 L 240.00,194.00 L 239.00,194.00 L 237.00,192.00 L 236.00,192.00 L 227.00,187.00 L 225.00,187.00 L 224.00,186.00 L 221.00,186.00 L 220.00,185.00 L 217.00,185.00 L 216.00,184.00 L 212.00,184.00 L 210.00,181.00 L 210.00,179.00 L 209.00,178.00 L 208.00,175.00 L 206.00,173.00 L 205.00,173.00 L 204.00,172.00 Z M 234.00,203.00 L 238.00,203.00 L 240.00,205.00 L 240.00,206.00 L 239.00,207.00 L 239.00,208.00 L 238.00,209.00 L 236.00,209.00 L 232.00,205.00 Z"/><path fill="#F58220" d="M 195.00,152.00 L 194.00,153.00 L 189.00,154.00 L 186.00,156.00 L 184.00,156.00 L 182.00,158.00 L 177.00,160.00 L 171.00,165.00 L 170.00,165.00 L 160.00,175.00 L 160.00,176.00 L 154.00,184.00 L 154.00,185.00 L 151.00,190.00 L 151.00,192.00 L 149.00,195.00 L 149.00,197.00 L 148.00,198.00 L 148.00,201.00 L 147.00,202.00 L 147.00,205.00 L 146.00,206.00 L 146.00,210.00 L 145.00,211.00 L 145.00,217.00 L 147.00,215.00 L 147.00,214.00 L 153.00,208.00 L 153.00,207.00 L 168.00,191.00 L 169.00,191.00 L 173.00,187.00 L 174.00,187.00 L 179.00,183.00 L 186.00,180.00 L 187.00,179.00 L 187.00,176.00 L 188.00,175.00 L 189.00,172.00 L 195.00,166.00 L 196.00,166.00 L 197.00,165.00 L 206.00,165.00 L 210.00,168.00 L 211.00,168.00 L 214.00,171.00 L 214.00,172.00 L 216.00,175.00 L 216.00,177.00 L 217.00,177.00 L 218.00,178.00 L 221.00,178.00 L 222.00,179.00 L 225.00,179.00 L 226.00,180.00 L 228.00,180.00 L 229.00,181.00 L 231.00,181.00 L 232.00,182.00 L 234.00,182.00 L 235.00,183.00 L 242.00,186.00 L 244.00,188.00 L 245.00,188.00 L 250.00,194.00 L 250.00,196.00 L 252.00,199.00 L 252.00,202.00 L 254.00,204.00 L 261.00,207.00 L 263.00,209.00 L 266.00,210.00 L 268.00,212.00 L 273.00,214.00 L 275.00,217.00 L 275.00,219.00 L 274.00,220.00 L 274.00,223.00 L 273.00,224.00 L 273.00,226.00 L 272.00,227.00 L 271.00,232.00 L 267.00,239.00 L 267.00,241.00 L 266.00,242.00 L 266.00,243.00 L 262.00,247.00 L 261.00,247.00 L 258.00,249.00 L 248.00,249.00 L 247.00,250.00 L 243.00,250.00 L 242.00,251.00 L 239.00,251.00 L 236.00,253.00 L 234.00,253.00 L 233.00,254.00 L 230.00,254.00 L 228.00,256.00 L 228.00,257.00 L 224.00,264.00 L 224.00,266.00 L 229.00,275.00 L 229.00,277.00 L 231.00,280.00 L 231.00,282.00 L 232.00,283.00 L 233.00,288.00 L 235.00,288.00 L 236.00,287.00 L 238.00,287.00 L 239.00,286.00 L 240.00,286.00 L 241.00,285.00 L 242.00,285.00 L 243.00,284.00 L 250.00,281.00 L 256.00,276.00 L 257.00,276.00 L 268.00,265.00 L 268.00,264.00 L 271.00,261.00 L 272.00,258.00 L 274.00,256.00 L 274.00,255.00 L 277.00,250.00 L 277.00,248.00 L 279.00,245.00 L 279.00,243.00 L 280.00,242.00 L 280.00,239.00 L 281.00,238.00 L 281.00,235.00 L 282.00,234.00 L 282.00,226.00 L 283.00,225.00 L 283.00,215.00 L 282.00,214.00 L 282.00,207.00 L 281.00,206.00 L 281.00,203.00 L 280.00,202.00 L 280.00,200.00 L 279.00,199.00 L 278.00,194.00 L 277.00,193.00 L 277.00,192.00 L 276.00,191.00 L 273.00,184.00 L 271.00,182.00 L 271.00,181.00 L 269.00,179.00 L 269.00,178.00 L 267.00,176.00 L 267.00,175.00 L 258.00,166.00 L 257.00,166.00 L 254.00,163.00 L 253.00,163.00 L 248.00,159.00 L 247.00,159.00 L 240.00,155.00 L 238.00,155.00 L 237.00,154.00 L 235.00,154.00 L 234.00,153.00 L 232.00,153.00 L 231.00,152.00 L 228.00,152.00 L 227.00,151.00 L 223.00,151.00 L 222.00,150.00 L 205.00,150.00 L 204.00,151.00 L 199.00,151.00 L 198.00,152.00 Z"/><path fill="#ffffff" d="M 201.00,139.00 L 200.00,140.00 L 196.00,140.00 L 195.00,141.00 L 192.00,141.00 L 191.00,142.00 L 189.00,142.00 L 186.00,144.00 L 184.00,144.00 L 181.00,146.00 L 179.00,146.00 L 178.00,147.00 L 177.00,147.00 L 175.00,149.00 L 174.00,149.00 L 173.00,150.00 L 172.00,150.00 L 171.00,151.00 L 170.00,151.00 L 167.00,154.00 L 166.00,154.00 L 162.00,158.00 L 161.00,158.00 L 154.00,165.00 L 154.00,166.00 L 150.00,170.00 L 150.00,171.00 L 148.00,173.00 L 148.00,174.00 L 146.00,176.00 L 146.00,177.00 L 145.00,178.00 L 145.00,179.00 L 144.00,180.00 L 144.00,181.00 L 143.00,182.00 L 143.00,183.00 L 142.00,184.00 L 142.00,185.00 L 141.00,186.00 L 141.00,187.00 L 139.00,190.00 L 139.00,192.00 L 138.00,193.00 L 138.00,195.00 L 137.00,196.00 L 137.00,199.00 L 136.00,200.00 L 136.00,203.00 L 135.00,204.00 L 135.00,210.00 L 134.00,211.00 L 134.00,228.00 L 135.00,229.00 L 135.00,234.00 L 136.00,235.00 L 136.00,238.00 L 137.00,239.00 L 137.00,242.00 L 138.00,243.00 L 138.00,245.00 L 140.00,248.00 L 140.00,250.00 L 141.00,251.00 L 141.00,252.00 L 142.00,253.00 L 142.00,254.00 L 143.00,255.00 L 143.00,256.00 L 144.00,257.00 L 144.00,258.00 L 146.00,260.00 L 146.00,261.00 L 148.00,263.00 L 148.00,265.00 L 145.00,268.00 L 143.00,268.00 L 142.00,267.00 L 139.00,267.00 L 138.00,266.00 L 136.00,266.00 L 135.00,265.00 L 134.00,265.00 L 135.00,266.00 L 135.00,267.00 L 137.00,269.00 L 137.00,270.00 L 139.00,272.00 L 139.00,273.00 L 142.00,276.00 L 142.00,277.00 L 146.00,281.00 L 148.00,281.00 L 149.00,282.00 L 154.00,282.00 L 160.00,288.00 L 161.00,288.00 L 163.00,290.00 L 164.00,290.00 L 167.00,293.00 L 168.00,293.00 L 169.00,294.00 L 170.00,294.00 L 171.00,295.00 L 172.00,295.00 L 174.00,297.00 L 175.00,297.00 L 178.00,299.00 L 180.00,299.00 L 183.00,301.00 L 185.00,301.00 L 186.00,302.00 L 188.00,302.00 L 189.00,303.00 L 189.00,304.00 L 186.00,307.00 L 187.00,307.00 L 188.00,308.00 L 190.00,308.00 L 191.00,309.00 L 194.00,309.00 L 195.00,310.00 L 202.00,310.00 L 205.00,308.00 L 208.00,308.00 L 209.00,307.00 L 216.00,307.00 L 217.00,308.00 L 220.00,308.00 L 221.00,309.00 L 222.00,309.00 L 225.00,311.00 L 227.00,311.00 L 228.00,310.00 L 233.00,310.00 L 234.00,309.00 L 237.00,309.00 L 238.00,308.00 L 240.00,308.00 L 236.00,304.00 L 236.00,303.00 L 237.00,302.00 L 239.00,302.00 L 240.00,301.00 L 242.00,301.00 L 243.00,300.00 L 245.00,300.00 L 248.00,298.00 L 250.00,298.00 L 252.00,296.00 L 253.00,296.00 L 254.00,295.00 L 255.00,295.00 L 256.00,294.00 L 257.00,294.00 L 259.00,292.00 L 260.00,292.00 L 262.00,290.00 L 263.00,290.00 L 267.00,286.00 L 268.00,286.00 L 272.00,282.00 L 277.00,282.00 L 278.00,281.00 L 282.00,281.00 L 286.00,277.00 L 286.00,276.00 L 289.00,273.00 L 289.00,272.00 L 291.00,270.00 L 291.00,269.00 L 293.00,267.00 L 293.00,266.00 L 295.00,263.00 L 292.00,265.00 L 290.00,265.00 L 289.00,266.00 L 287.00,266.00 L 286.00,267.00 L 284.00,267.00 L 283.00,268.00 L 281.00,268.00 L 278.00,265.00 L 278.00,264.00 L 279.00,263.00 L 279.00,262.00 L 282.00,259.00 L 282.00,258.00 L 283.00,257.00 L 283.00,256.00 L 284.00,255.00 L 284.00,254.00 L 285.00,253.00 L 285.00,252.00 L 286.00,251.00 L 286.00,250.00 L 288.00,247.00 L 288.00,245.00 L 289.00,244.00 L 289.00,242.00 L 290.00,241.00 L 290.00,238.00 L 291.00,237.00 L 291.00,234.00 L 292.00,233.00 L 292.00,227.00 L 293.00,226.00 L 293.00,211.00 L 292.00,210.00 L 292.00,204.00 L 291.00,203.00 L 291.00,200.00 L 290.00,199.00 L 290.00,196.00 L 289.00,195.00 L 289.00,193.00 L 288.00,192.00 L 288.00,190.00 L 287.00,189.00 L 287.00,188.00 L 285.00,185.00 L 285.00,183.00 L 283.00,181.00 L 283.00,180.00 L 282.00,179.00 L 282.00,178.00 L 281.00,177.00 L 281.00,176.00 L 279.00,174.00 L 279.00,173.00 L 276.00,170.00 L 276.00,169.00 L 262.00,155.00 L 261.00,155.00 L 259.00,153.00 L 258.00,153.00 L 256.00,151.00 L 255.00,151.00 L 253.00,149.00 L 252.00,149.00 L 251.00,148.00 L 250.00,148.00 L 249.00,147.00 L 248.00,147.00 L 247.00,146.00 L 246.00,146.00 L 243.00,144.00 L 241.00,144.00 L 238.00,142.00 L 235.00,142.00 L 234.00,141.00 L 232.00,141.00 L 231.00,140.00 L 226.00,140.00 L 225.00,139.00 L 218.00,139.00 L 217.00,138.00 L 210.00,138.00 L 209.00,139.00 Z M 200.00,170.00 L 203.00,170.00 L 204.00,171.00 L 205.00,171.00 L 206.00,172.00 L 207.00,172.00 L 208.00,173.00 L 208.00,174.00 L 210.00,176.00 L 210.00,177.00 L 211.00,178.00 L 211.00,179.00 L 212.00,180.00 L 212.00,181.00 L 214.00,183.00 L 220.00,183.00 L 221.00,184.00 L 223.00,184.00 L 224.00,185.00 L 226.00,185.00 L 227.00,186.00 L 228.00,186.00 L 231.00,188.00 L 233.00,188.00 L 234.00,189.00 L 235.00,189.00 L 237.00,191.00 L 239.00,191.00 L 240.00,192.00 L 240.00,193.00 L 241.00,194.00 L 242.00,194.00 L 244.00,196.00 L 244.00,197.00 L 245.00,198.00 L 245.00,199.00 L 247.00,202.00 L 247.00,206.00 L 248.00,207.00 L 250.00,207.00 L 252.00,209.00 L 253.00,209.00 L 255.00,211.00 L 256.00,211.00 L 259.00,213.00 L 261.00,213.00 L 263.00,215.00 L 264.00,215.00 L 269.00,220.00 L 268.00,221.00 L 268.00,224.00 L 267.00,225.00 L 267.00,228.00 L 266.00,229.00 L 266.00,231.00 L 263.00,234.00 L 263.00,236.00 L 262.00,237.00 L 262.00,239.00 L 258.00,243.00 L 257.00,243.00 L 256.00,244.00 L 245.00,244.00 L 244.00,245.00 L 240.00,245.00 L 237.00,247.00 L 235.00,247.00 L 234.00,248.00 L 232.00,248.00 L 231.00,249.00 L 229.00,249.00 L 228.00,250.00 L 225.00,250.00 L 224.00,251.00 L 224.00,254.00 L 222.00,256.00 L 222.00,257.00 L 220.00,259.00 L 220.00,261.00 L 218.00,264.00 L 218.00,266.00 L 219.00,267.00 L 219.00,268.00 L 221.00,270.00 L 221.00,271.00 L 222.00,272.00 L 222.00,273.00 L 224.00,276.00 L 224.00,279.00 L 225.00,280.00 L 225.00,282.00 L 226.00,283.00 L 226.00,286.00 L 227.00,287.00 L 227.00,291.00 L 226.00,292.00 L 221.00,292.00 L 220.00,293.00 L 203.00,293.00 L 202.00,292.00 L 198.00,292.00 L 197.00,291.00 L 195.00,291.00 L 194.00,290.00 L 192.00,290.00 L 189.00,288.00 L 186.00,288.00 L 185.00,287.00 L 184.00,287.00 L 183.00,286.00 L 182.00,286.00 L 181.00,285.00 L 180.00,285.00 L 179.00,284.00 L 178.00,284.00 L 177.00,283.00 L 176.00,283.00 L 175.00,282.00 L 175.00,281.00 L 174.00,281.00 L 172.00,279.00 L 171.00,279.00 L 164.00,272.00 L 163.00,272.00 L 160.00,269.00 L 160.00,268.00 L 158.00,266.00 L 158.00,265.00 L 154.00,261.00 L 154.00,260.00 L 153.00,259.00 L 153.00,258.00 L 152.00,257.00 L 152.00,256.00 L 150.00,253.00 L 150.00,251.00 L 149.00,250.00 L 149.00,249.00 L 147.00,247.00 L 147.00,244.00 L 146.00,243.00 L 146.00,240.00 L 145.00,239.00 L 145.00,237.00 L 144.00,236.00 L 144.00,233.00 L 143.00,232.00 L 143.00,231.00 L 144.00,230.00 L 144.00,229.00 L 147.00,226.00 L 147.00,225.00 L 149.00,223.00 L 149.00,222.00 L 152.00,219.00 L 152.00,218.00 L 153.00,217.00 L 153.00,215.00 L 154.00,214.00 L 155.00,215.00 L 156.00,214.00 L 156.00,213.00 L 157.00,212.00 L 157.00,211.00 L 158.00,210.00 L 159.00,210.00 L 159.00,208.00 L 160.00,207.00 L 161.00,207.00 L 163.00,205.00 L 163.00,204.00 L 165.00,202.00 L 165.00,201.00 L 166.00,200.00 L 167.00,200.00 L 173.00,194.00 L 174.00,194.00 L 176.00,191.00 L 177.00,191.00 L 178.00,190.00 L 179.00,190.00 L 181.00,188.00 L 182.00,188.00 L 185.00,186.00 L 187.00,186.00 L 188.00,185.00 L 190.00,185.00 L 191.00,184.00 L 191.00,182.00 L 192.00,181.00 L 192.00,177.00 L 198.00,171.00 L 199.00,171.00 Z M 191.00,151.00 L 195.00,151.00 L 196.00,150.00 L 199.00,150.00 L 200.00,149.00 L 208.00,149.00 L 209.00,148.00 L 218.00,148.00 L 219.00,149.00 L 225.00,149.00 L 226.00,150.00 L 230.00,150.00 L 231.00,151.00 L 235.00,151.00 L 238.00,153.00 L 240.00,153.00 L 242.00,155.00 L 244.00,155.00 L 246.00,157.00 L 247.00,157.00 L 248.00,158.00 L 249.00,158.00 L 252.00,160.00 L 254.00,160.00 L 255.00,161.00 L 255.00,162.00 L 256.00,162.00 L 257.00,163.00 L 257.00,164.00 L 258.00,163.00 L 259.00,164.00 L 259.00,165.00 L 265.00,171.00 L 266.00,171.00 L 268.00,173.00 L 268.00,174.00 L 269.00,175.00 L 269.00,176.00 L 271.00,178.00 L 271.00,179.00 L 272.00,180.00 L 272.00,181.00 L 274.00,183.00 L 274.00,184.00 L 278.00,188.00 L 277.00,189.00 L 277.00,190.00 L 279.00,192.00 L 279.00,194.00 L 280.00,195.00 L 280.00,197.00 L 281.00,198.00 L 281.00,199.00 L 282.00,200.00 L 282.00,202.00 L 283.00,203.00 L 283.00,208.00 L 284.00,209.00 L 284.00,217.00 L 285.00,218.00 L 285.00,219.00 L 284.00,220.00 L 284.00,223.00 L 285.00,224.00 L 284.00,225.00 L 284.00,232.00 L 283.00,233.00 L 283.00,237.00 L 282.00,238.00 L 282.00,240.00 L 281.00,241.00 L 281.00,244.00 L 280.00,245.00 L 280.00,247.00 L 279.00,248.00 L 279.00,249.00 L 278.00,250.00 L 278.00,251.00 L 277.00,252.00 L 277.00,253.00 L 276.00,254.00 L 276.00,255.00 L 275.00,256.00 L 275.00,257.00 L 273.00,259.00 L 273.00,260.00 L 272.00,261.00 L 272.00,263.00 L 259.00,276.00 L 258.00,276.00 L 254.00,280.00 L 253.00,280.00 L 251.00,282.00 L 250.00,282.00 L 247.00,285.00 L 246.00,285.00 L 245.00,286.00 L 243.00,286.00 L 240.00,288.00 L 238.00,288.00 L 237.00,289.00 L 235.00,289.00 L 234.00,290.00 L 233.00,290.00 L 232.00,289.00 L 232.00,288.00 L 231.00,287.00 L 231.00,285.00 L 230.00,284.00 L 230.00,282.00 L 229.00,281.00 L 229.00,279.00 L 228.00,278.00 L 228.00,277.00 L 226.00,274.00 L 226.00,272.00 L 225.00,272.00 L 223.00,270.00 L 224.00,269.00 L 223.00,268.00 L 223.00,263.00 L 224.00,262.00 L 224.00,261.00 L 226.00,258.00 L 226.00,255.00 L 229.00,253.00 L 231.00,253.00 L 234.00,251.00 L 237.00,251.00 L 240.00,249.00 L 243.00,249.00 L 244.00,248.00 L 251.00,248.00 L 252.00,247.00 L 259.00,247.00 L 260.00,246.00 L 261.00,246.00 L 261.00,245.00 L 264.00,243.00 L 264.00,242.00 L 266.00,239.00 L 266.00,237.00 L 267.00,236.00 L 267.00,235.00 L 268.00,234.00 L 268.00,233.00 L 269.00,232.00 L 269.00,231.00 L 271.00,228.00 L 271.00,224.00 L 272.00,223.00 L 272.00,221.00 L 273.00,220.00 L 273.00,218.00 L 271.00,216.00 L 271.00,215.00 L 270.00,214.00 L 269.00,214.00 L 268.00,213.00 L 267.00,213.00 L 266.00,212.00 L 265.00,212.00 L 263.00,210.00 L 262.00,210.00 L 260.00,208.00 L 257.00,208.00 L 254.00,205.00 L 253.00,205.00 L 251.00,203.00 L 251.00,202.00 L 250.00,201.00 L 250.00,199.00 L 248.00,196.00 L 248.00,193.00 L 247.00,192.00 L 246.00,192.00 L 243.00,189.00 L 242.00,189.00 L 240.00,187.00 L 239.00,187.00 L 238.00,186.00 L 237.00,186.00 L 236.00,185.00 L 235.00,185.00 L 232.00,183.00 L 230.00,183.00 L 229.00,182.00 L 227.00,182.00 L 226.00,181.00 L 224.00,181.00 L 223.00,180.00 L 218.00,180.00 L 215.00,177.00 L 215.00,176.00 L 214.00,175.00 L 214.00,174.00 L 211.00,171.00 L 211.00,170.00 L 210.00,169.00 L 208.00,169.00 L 207.00,168.00 L 206.00,168.00 L 205.00,167.00 L 203.00,167.00 L 202.00,166.00 L 199.00,166.00 L 198.00,167.00 L 197.00,167.00 L 196.00,168.00 L 195.00,168.00 L 192.00,171.00 L 192.00,174.00 L 190.00,176.00 L 189.00,176.00 L 189.00,178.00 L 187.00,181.00 L 186.00,181.00 L 184.00,183.00 L 183.00,183.00 L 182.00,184.00 L 180.00,184.00 L 178.00,186.00 L 177.00,186.00 L 175.00,189.00 L 174.00,189.00 L 173.00,190.00 L 172.00,190.00 L 170.00,192.00 L 169.00,192.00 L 164.00,197.00 L 164.00,198.00 L 163.00,199.00 L 162.00,199.00 L 159.00,202.00 L 159.00,203.00 L 158.00,204.00 L 157.00,204.00 L 157.00,205.00 L 156.00,206.00 L 156.00,207.00 L 155.00,208.00 L 154.00,208.00 L 154.00,209.00 L 153.00,210.00 L 153.00,211.00 L 152.00,212.00 L 151.00,212.00 L 152.00,213.00 L 151.00,214.00 L 149.00,214.00 L 149.00,215.00 L 148.00,216.00 L 147.00,216.00 L 147.00,217.00 L 145.00,219.00 L 144.00,219.00 L 143.00,218.00 L 143.00,215.00 L 144.00,214.00 L 144.00,213.00 L 143.00,212.00 L 143.00,211.00 L 144.00,210.00 L 144.00,209.00 L 143.00,208.00 L 145.00,206.00 L 145.00,203.00 L 146.00,202.00 L 146.00,200.00 L 147.00,199.00 L 147.00,196.00 L 148.00,195.00 L 148.00,193.00 L 149.00,192.00 L 149.00,191.00 L 150.00,190.00 L 150.00,189.00 L 151.00,188.00 L 151.00,187.00 L 153.00,184.00 L 153.00,181.00 L 156.00,179.00 L 156.00,178.00 L 159.00,175.00 L 159.00,174.00 L 169.00,164.00 L 170.00,164.00 L 173.00,161.00 L 174.00,161.00 L 176.00,159.00 L 177.00,159.00 L 178.00,158.00 L 179.00,158.00 L 181.00,156.00 L 182.00,156.00 L 183.00,155.00 L 184.00,155.00 L 185.00,154.00 L 186.00,154.00 L 188.00,152.00 L 190.00,152.00 Z M 279.00,248.00 L 280.00,247.00 L 281.00,248.00 L 280.00,249.00 Z M 268.00,229.00 L 269.00,228.00 L 270.00,229.00 L 269.00,230.00 Z"/>
</svg>
